<svg width="227" height="348" viewBox="0 0 227 348" fill="none" xmlns="http://www.w3.org/2000/svg">
<path d="M58.8477 282.78L36.9717 266.533L84.1777 202.185C81.6191 202.526 79.4443 202.782 77.6533 202.952C75.8623 203.123 74.4124 203.208 73.3037 203.208C57.3551 203.208 43.5387 197.11 31.8545 184.914C20.2555 172.803 14.4561 158.219 14.4561 141.162C14.4561 122.996 20.8952 107.474 33.7734 94.5957C46.737 81.6322 62.2591 75.1504 80.3398 75.1504C98.3353 75.1504 113.985 81.5469 127.29 94.3398C140.595 107.048 147.247 122.058 147.247 139.371C147.247 154.723 140.765 171.311 127.802 189.136L58.8477 282.78ZM43.4961 138.987C43.4961 149.648 47.1208 158.603 54.3701 165.853C61.7048 173.187 70.5319 176.854 80.8516 176.854C91.1712 176.854 99.9557 173.23 107.205 165.98C114.54 158.646 118.207 149.819 118.207 139.499C118.207 129.179 114.54 120.352 107.205 113.018C99.9557 105.768 91.1286 102.144 80.7236 102.144C70.4893 102.144 61.7474 105.768 54.498 113.018C47.1634 120.352 43.4961 129.009 43.4961 138.987Z" fill="black"/>
<circle cx="189.5" cy="220.5" r="37.5" fill="#FF5722"/>
</svg>
